:SAMPLES-PER-SECOND 30
:FULLY-SPECIFIED
:DEGREES
851
root  -5.3603 34.6566 -12.0014 -173.073 51.352 179.087
RightUpLeg  -5.80406 -19.4385 -12.8005
RightLeg  16.1168 2.22678 0.490469
RightFoot  12.9612 -0.0104086 0.614962
RightToes  -49.3931 -0.297523 -0.361809
Spine  -2.79214 1.24257 -0.540315
Spine1  -5.55421 2.44046 -0.30812
HEad  -61.2719 -2.58463 4.07874
LeftShoulder1  -1.94126e-019 -3.10601e-018 -2.51263e-017
LeftArm  -31.0186 17.7749 -54.0185
LeftForeArm  36.1819 -10.4559 -1.8485
LeftHand  -0.304184 -0.435041 6.15261
RightShoulder  -4.96962e-017 0 -2.36833e-017
RightArm  -49.6386 1.2472 50.1658
RightForeArm  65.3427 13.9496 2.44942
RightHand  -0.34485 -1.40984 -9.94356
LeftUpLeg  -15.6221 -0.904178 -1.37768
LeftLeg  14.1483 9.04233 1.66104
LeftFoot  4.3178 -0.0226365 0.858058
LeftToes  -9.43184 1.87998e-006 4.79886e-008
852
root  -5.31687 34.5716 -11.449 -172.108 50.789 179.494
RightUpLeg  -4.96144 -19.4802 -11.1726
RightLeg  12.8505 0.453991 0.0738054
RightFoot  11.6762 0.0311329 0.227832
RightToes  -47.5853 -0.281734 -0.353841
Spine  -2.74114 1.28726 -0.530133
Spine1  -5.47878 2.58381 -0.309421
HEad  -61.2965 -2.01119 3.28303
LeftShoulder1  -1.94126e-019 -3.10601e-018 -2.51263e-017
LeftArm  -32.238 22.7021 -60.8533
LeftForeArm  37.5349 -4.49499 -0.778822
LeftHand  -0.291992 -0.752666 5.63065
RightShoulder  -4.96962e-017 0 -2.36833e-017
RightArm  -50.0897 -5.92763 54.6833
RightForeArm  66.1738 5.92658 0.987308
RightHand  -0.255836 -2.408 -9.63926
LeftUpLeg  -18.6255 -1.29668 -0.275928
LeftLeg  17.7498 8.63871 2.15302
LeftFoot  3.77301 -0.0195084 0.75382
LeftToes  -11.6299 1.87998e-006 4.79886e-008
853
root  -5.32412 34.3289 -10.8723 -170.847 49.6016 -179.797
RightUpLeg  -5.05591 -21.1017 -9.25819
RightLeg  11.2631 -0.906691 -0.119754
RightFoot  8.87583 0.0380627 0.0464493
RightToes  -42.2244 -0.236492 -0.32734
Spine  -2.56722 1.49719 -0.370796
Spine1  -5.17223 3.1907 -0.178478
HEad  -62.0055 -1.65468 2.20266
LeftShoulder1  -1.94126e-019 -3.10601e-018 -2.51263e-017
LeftArm  -32.2921 28.3106 -68.1685
LeftForeArm  36.3368 -6.37372 -1.11208
LeftHand  -0.274654 -1.71913 4.65675
RightShoulder  -4.96962e-017 0 -2.36833e-017
RightArm  -50.2176 -14.3533 59.3275
RightForeArm  67.7351 3.77189 0.604058
RightHand  -0.211249 -2.70655 -8.71005
LeftUpLeg  -22.8519 -0.00846644 0.78105
LeftLeg  23.1321 6.07612 2.13734
LeftFoot  2.17341 -0.00440727 0.393883
LeftToes  -13.6192 1.87998e-006 4.79886e-008
854
root  -5.45181 34.0451 -10.402 -170.901 49.154 179.301
RightUpLeg  -6.06247 -23.417 -9.00002
RightLeg  11.2534 0.138915 0.0193041
RightFoot  5.90932 0.015638 0.223446
RightToes  -39.7667 -0.216622 -0.313801
Spine  -2.42035 1.7809 -0.578223
Spine1  -4.81168 3.84412 -0.678788
HEad  -63.0718 -0.915083 0.460361
LeftShoulder1  -1.94126e-019 -3.10601e-018 -2.51263e-017
LeftArm  -34.9029 33.3652 -75.1194
LeftForeArm  35.2958 -8.32532 -1.46479
LeftHand  -0.156052 -3.08543 2.3721
RightShoulder  -4.96962e-017 0 -2.36833e-017
RightArm  -50.2989 -21.9703 64.434
RightForeArm  69.9183 3.81049 0.605324
RightHand  -0.227053 -1.94694 -7.41611
LeftUpLeg  -25.9111 3.37262 0.143433
LeftLeg  26.3753 2.83411 1.18057
LeftFoot  0.57878 -6.61558e-005 0.174661
LeftToes  -17.3981 1.87998e-006 4.79886e-008
855
root  -5.63779 33.8173 -9.99434 -170.6 49.2393 178.895
RightUpLeg  -7.41154 -24.9019 -8.56844
RightLeg  11.4349 1.44028 0.196848
RightFoot  4.4878 0.00475316 0.318874
RightToes  -40.0096 -0.21856 -0.309967
Spine  -2.43977 2.10631 -0.691671
Spine1  -4.70708 4.54229 -1.01417
HEad  -63.0626 0.239627 -1.37248
LeftShoulder1  -1.94126e-019 -3.10601e-018 -2.51263e-017
LeftArm  -38.0732 37.8518 -81.7347
LeftForeArm  33.4799 -9.43306 -1.67015
LeftHand  -0.0230954 -4.05338 0.554973
RightShoulder  -4.96962e-017 0 -2.36833e-017
RightArm  -49.7373 -28.4584 69.823
RightForeArm  71.9586 3.89652 0.615135
RightHand  -0.241721 -1.51857 -7.09086
LeftUpLeg  -28.6018 8.1196 -0.635162
LeftLeg  29.1405 0.84185 0.396363
LeftFoot  -1.05854 -0.000352721 0.123302
LeftToes  -21.5973 1.87998e-006 4.79886e-008
856
root  -5.86443 33.7251 -9.73634 -170.483 49.4196 178.804
RightUpLeg  -8.14061 -25.5186 -8.29124
RightLeg  11.2543 2.20535 0.293918
RightFoot  4.60753 -0.00210917 0.375465
RightToes  -40.4211 -0.219716 -0.310002
Spine  -2.45847 2.31692 -0.542988
Spine1  -4.53123 5.06605 -0.850648
HEad  -61.9692 2.03531 -4.08915
LeftShoulder1  -1.94126e-019 -3.10601e-018 -2.51263e-017
LeftArm  -43.4096 41.5655 -89.3381
LeftForeArm  31.9649 -9.6298 -1.70504
LeftHand  -0.0374569 -3.66828 0.736332
RightShoulder  -4.96962e-017 0 -2.36833e-017
RightArm  -48.6804 -33.4537 74.2683
RightForeArm  74.4687 3.74862 0.581674
RightHand  -0.297154 -0.893707 -7.61539
LeftUpLeg  -30.1778 12.2229 -1.26152
LeftLeg  31.2195 6.91859 3.58915
LeftFoot  -2.95919 -0.01068 -0.251955
LeftToes  -18.698 1.87998e-006 4.79886e-008
